#N canvas 1998 200 1220 774 10;
#X msg 699 107 feedback \$1;
#X msg 715 178 speed \$1;
#X msg 730 227 intensity \$1;
#X obj 107 341 samphold~;
#X obj 159 312 phasor~;
#X obj 399 161 osc~;
#X obj 399 205 clip~ -1 1;
#X obj 445 105 t b b;
#X msg 420 134 0;
#X obj 399 459 *~;
#N canvas 136 565 450 300 bitcrusher 0;
#X obj 72 95 *~;
#X obj 72 163 -~;
#X obj 86 139 wrap~;
#X obj 72 209 /~;
#X obj 74 12 inlet~;
#X obj 72 231 outlet~;
#X obj 171 7 inlet;
#X msg 171 29 \$1 100;
#X obj 164 65 line~;
#X connect 0 0 1 0 empty;
#X connect 0 0 2 0 empty;
#X connect 1 0 3 0 empty;
#X connect 2 0 1 1 empty;
#X connect 3 0 5 0 empty;
#X connect 4 0 0 0 empty;
#X connect 6 0 7 0 empty;
#X connect 7 0 8 0 empty;
#X connect 8 0 0 1 empty;
#X connect 8 0 3 1 empty;
#X restore 399 433 pd bitcrusher;
#X obj 106 523 *~;
#X obj 159 228 line~;
#X obj 159 290 *~ 12000;
#X obj 106 613 +~;
#X obj 106 701 *~ 0.5;
#X msg 159 205 1 \, 0 \$1;
#X obj 159 179 f 100;
#X obj 234 391 r \$0-Noise-Attack;
#X obj 234 413 * 3000;
#X obj 176 366 r \$0-Trigger;
#X obj 445 81 r \$0-Trigger;
#X obj 204 245 r \$0-Noise-Sweep-Freq;
#X obj 204 267 * 12000;
#X obj 293 438 * 3000;
#X obj 293 416 r \$0-Noise-Decay;
#X obj 186 52 r \$0-Noise-Attack;
#X obj 198 75 r \$0-Noise-Decay;
#X obj 186 125 +;
#X obj 198 97 t b f;
#X obj 186 152 * 3000;
#X obj 159 28 r \$0-Trigger;
#X obj 583 137 r \$0-Osc-Decay;
#X obj 583 159 * 3000;
#X obj 527 110 r \$0-Osc-Attack;
#X obj 527 132 * 3000;
#X obj 399 183 *~ 500;
#X obj 399 10 r \$0-Osc-Freq;
#X obj 399 32 * 5000;
#X obj 399 54 + 100;
#X obj 178 502 r \$0-Noise-Amount;
#X msg 178 524 \$1 100;
#X obj 178 546 line~;
#X obj 106 575 *~;
#X msg 435 503 \$1 100;
#X obj 435 525 line~;
#X obj 435 459 r \$0-Osc-Amount;
#X obj 400 552 *~;
#X msg 681 33 mix 0.7;
#X obj 681 11 loadbang;
#X obj 474 318 r \$0-Bitcrush-Amount;
#X msg 474 342 1 \$1;
#X obj 474 364 -;
#X obj 474 386 * 10;
#X obj 474 408 max 0.1;
#X obj 730 203 r \$0-Flanger-Depth;
#X obj 715 133 r \$0-Flanger-Speed;
#X obj 715 155 * 20;
#X obj 699 61 r \$0-Flanger-Feedback;
#X obj 699 83 min 0.98;
#X obj 435 481 * 0.3;
#X obj 106 669 hip~ 5;
#X obj 106 647 clip~ -1 1;
#X obj 681 253 t a;
#X obj 472 183 helpers/c_ead 5 100;
#X obj 176 464 helpers/c_ead 1 1000;
#X obj 107 729 outlet~;
#X obj 984 38 inlet;
#X obj 984 61 t a;
#X obj 984 86 hv.dispatch \$0 Noise-Sweep-Freq;
#X obj 984 109 hv.dispatch \$0 Noise-Amount;
#X obj 984 131 hv.dispatch \$0 Noise-Attack;
#X obj 984 155 hv.dispatch \$0 Noise-Decay;
#X obj 984 178 hv.dispatch \$0 Osc-Attack;
#X obj 984 201 hv.dispatch \$0 Osc-Decay;
#X obj 984 224 hv.dispatch \$0 Osc-Freq;
#X obj 984 247 hv.dispatch \$0 Osc-Amount;
#X obj 984 270 hv.dispatch \$0 Bitcrush-Amount;
#X obj 984 293 hv.dispatch \$0 Flanger-Feedback;
#X obj 984 316 hv.dispatch \$0 Flanger-Speed;
#X obj 984 339 hv.dispatch \$0 Flanger-Depth;
#X obj 878 39 inlet;
#X obj 878 62 s \$0-Trigger;
#X obj 69 244 hv.pinknoise~;
#X obj 398 291 hv.flanger~ 20;
#X connect 0 0 63 0 empty;
#X connect 1 0 63 0 empty;
#X connect 2 0 63 0 empty;
#X connect 3 0 11 0 empty;
#X connect 4 0 3 1 empty;
#X connect 5 0 36 0 empty;
#X connect 6 0 84 0 empty;
#X connect 7 0 8 0 empty;
#X connect 7 1 64 0 empty;
#X connect 8 0 5 1 empty;
#X connect 9 0 47 0 empty;
#X connect 10 0 9 0 empty;
#X connect 11 0 43 0 empty;
#X connect 12 0 13 0 empty;
#X connect 13 0 4 0 empty;
#X connect 14 0 62 0 empty;
#X connect 15 0 66 0 empty;
#X connect 16 0 12 0 empty;
#X connect 17 0 16 0 empty;
#X connect 18 0 19 0 empty;
#X connect 19 0 65 1 empty;
#X connect 20 0 65 0 empty;
#X connect 21 0 7 0 empty;
#X connect 22 0 23 0 empty;
#X connect 23 0 13 1 empty;
#X connect 24 0 65 2 empty;
#X connect 25 0 24 0 empty;
#X connect 26 0 28 0 empty;
#X connect 27 0 29 0 empty;
#X connect 28 0 30 0 empty;
#X connect 29 0 28 0 empty;
#X connect 29 1 28 1 empty;
#X connect 30 0 17 1 empty;
#X connect 31 0 17 0 empty;
#X connect 32 0 33 0 empty;
#X connect 33 0 64 2 empty;
#X connect 34 0 35 0 empty;
#X connect 35 0 64 1 empty;
#X connect 36 0 6 0 empty;
#X connect 37 0 38 0 empty;
#X connect 38 0 39 0 empty;
#X connect 39 0 5 0 empty;
#X connect 40 0 41 0 empty;
#X connect 41 0 42 0 empty;
#X connect 42 0 43 1 empty;
#X connect 43 0 14 0 empty;
#X connect 44 0 45 0 empty;
#X connect 45 0 47 1 empty;
#X connect 46 0 60 0 empty;
#X connect 47 0 14 1 empty;
#X connect 48 0 63 0 empty;
#X connect 49 0 48 0 empty;
#X connect 50 0 51 0 empty;
#X connect 51 0 52 0 empty;
#X connect 52 0 53 0 empty;
#X connect 53 0 54 0 empty;
#X connect 54 0 10 1 empty;
#X connect 55 0 2 0 empty;
#X connect 56 0 57 0 empty;
#X connect 57 0 1 0 empty;
#X connect 58 0 59 0 empty;
#X connect 59 0 0 0 empty;
#X connect 60 0 44 0 empty;
#X connect 61 0 15 0 empty;
#X connect 62 0 61 0 empty;
#X connect 63 0 84 1 empty;
#X connect 64 0 9 1 empty;
#X connect 65 0 11 1 empty;
#X connect 67 0 68 0 empty;
#X connect 68 0 69 0 empty;
#X connect 69 0 70 0 empty;
#X connect 70 0 71 0 empty;
#X connect 71 0 72 0 empty;
#X connect 72 0 73 0 empty;
#X connect 73 0 74 0 empty;
#X connect 74 0 75 0 empty;
#X connect 75 0 76 0 empty;
#X connect 76 0 77 0 empty;
#X connect 77 0 78 0 empty;
#X connect 78 0 79 0 empty;
#X connect 79 0 80 0 empty;
#X connect 81 0 82 0 empty;
#X connect 83 0 3 0 empty;
#X connect 84 0 10 0 empty;
