#N canvas 386 206 1077 604 12;
#X obj 323 28 r EOC;
#X obj 323 106 bng 15 250 50 0 empty empty empty 17 7 0 10 -262144
-1 -1;
#X obj 92 204 bng 15 250 50 0 empty empty empty 17 7 0 10 -262144 -1
-1;
#X obj 476 158 bng 15 250 50 0 empty empty empty 17 7 0 10 -262144
-1 -1;
#X obj 61 273 random 300;
#X obj 61 296 + 50;
#X msg 61 319 0.75 \$1;
#X obj 61 342 line 0 1;
#X floatatom 32 384 5 0 0 0 - - -;
#X obj 32 406 sel 0;
#X obj 61 486 spigot;
#X obj 61 509 delay 100;
#X obj 61 532 s EOC;
#X obj 140 423 delay 100;
#X msg 140 446 1;
#X obj 140 474 tgl 15 0 empty empty empty 17 7 0 10 -262144 -1 -1 0
1;
#X msg 89 424 0;
#X obj 317 214 random 88;
#X obj 317 237 + 21;
#X obj 317 260 mtof;
#X floatatom 317 283 5 0 0 0 - - -;
#X obj 421 400 +~;
#X obj 421 423 osc~ 200;
#X obj 421 446 *~ 0;
#X obj 421 469 bp~ 100 3;
#X obj 361 529 throw~ left;
#X obj 445 538 throw~ right;
#X obj 539 540 throw~ delay;
#X obj 455 216 random 88;
#X obj 455 239 + 21;
#X obj 455 262 mtof;
#X floatatom 455 285 5 0 0 0 - - -;
#X obj 599 211 random 88;
#X obj 599 234 + 21;
#X obj 599 257 mtof;
#X floatatom 599 280 5 0 0 0 - - -;
#X obj 163 229 delay 5;
#X obj 163 252 delay 100;
#X obj 163 275 random 2000;
#X obj 163 298 + 100;
#X msg 163 321 0 \$1;
#X obj 455 307 osc~;
#X obj 455 330 *~;
#X obj 507 260 random;
#X floatatom 508 289 5 0 0 0 - - -;
#X obj 818 149 catch~ delay;
#X obj 819 202 lop~ 2000;
#X obj 819 257 *~ 0.9;
#X obj 819 280 delwrite~ delBuff 800;
#X obj 701 347 delread~ delBuff 800;
#X obj 701 370 throw~ left;
#X obj 864 347 delread~ delBuff 633;
#X obj 821 378 throw~ right;
#X obj 917 379 throw~ delay;
#X obj 728 453 catch~ left;
#X obj 789 492 dac~;
#X obj 835 455 catch~ right;
#X obj 819 225 hip~ 600;
#X obj 226 27 inlet;
#X connect 0 0 1 0;
#X connect 1 0 2 0;
#X connect 1 0 3 0;
#X connect 1 0 13 0;
#X connect 2 0 4 0;
#X connect 2 0 36 0;
#X connect 3 0 17 0;
#X connect 3 0 28 0;
#X connect 3 0 32 0;
#X connect 3 0 43 0;
#X connect 4 0 5 0;
#X connect 5 0 6 0;
#X connect 6 0 7 0;
#X connect 7 0 8 0;
#X connect 7 0 23 1;
#X connect 8 0 9 0;
#X connect 9 0 10 0;
#X connect 10 0 11 0;
#X connect 10 0 16 0;
#X connect 11 0 12 0;
#X connect 13 0 14 0;
#X connect 14 0 15 0;
#X connect 15 0 10 1;
#X connect 16 0 15 0;
#X connect 17 0 18 0;
#X connect 18 0 19 0;
#X connect 19 0 20 0;
#X connect 20 0 21 0;
#X connect 20 0 43 1;
#X connect 21 0 22 0;
#X connect 22 0 23 0;
#X connect 23 0 24 0;
#X connect 24 0 25 0;
#X connect 24 0 26 0;
#X connect 24 0 27 0;
#X connect 28 0 29 0;
#X connect 29 0 30 0;
#X connect 30 0 31 0;
#X connect 31 0 41 0;
#X connect 32 0 33 0;
#X connect 33 0 34 0;
#X connect 34 0 35 0;
#X connect 35 0 24 1;
#X connect 36 0 37 0;
#X connect 37 0 38 0;
#X connect 38 0 39 0;
#X connect 39 0 40 0;
#X connect 40 0 7 0;
#X connect 41 0 42 0;
#X connect 42 0 21 1;
#X connect 43 0 44 0;
#X connect 44 0 42 1;
#X connect 45 0 46 0;
#X connect 46 0 57 0;
#X connect 47 0 48 0;
#X connect 49 0 50 0;
#X connect 51 0 52 0;
#X connect 51 0 53 0;
#X connect 54 0 55 0;
#X connect 56 0 55 1;
#X connect 57 0 47 0;
#X connect 58 0 1 0;
