#N canvas 1200 254 687 549 12;
#X obj 272 154 / 127;
#X obj 297 212 * 0.5;
#X obj 272 262 pack;
#X msg 405 307 0 700;
#X msg 272 301 \$1 5 \, \$2 200 5;
#X obj 182 31 inlet;
#X obj 184 447 outlet~;
#X obj 272 94 inlet;
#X text 238 29 frequency;
#X text 257 446 output;
#X obj 405 148 inlet;
#X text 328 94 velocity high;
#X text 457 147 velocity 0;
#X obj 182 263 sig~;
#X obj 184 401 *~;
#X obj 183 302 hv.osc~ saw;
#X obj 276 351 hv.vline~;
#X connect 0 0 2 0 empty;
#X connect 0 0 1 0 empty;
#X connect 1 0 2 1 empty;
#X connect 2 0 4 0 empty;
#X connect 3 0 16 0 empty;
#X connect 4 0 16 0 empty;
#X connect 5 0 13 0 empty;
#X connect 7 0 0 0 empty;
#X connect 10 0 3 0 empty;
#X connect 13 0 15 0 empty;
#X connect 14 0 6 0 empty;
#X connect 15 0 14 0 empty;
#X connect 16 0 14 1 empty;
