#N canvas 1200 254 687 549 12;
#N canvas 0 50 450 250 (subpatch) 0;
#X text 0 0 plugdatainfo <?xml version="1.0" encoding="UTF-8"?> <PlugDataInfo/>
;
#X coords 0 1 100 -1 1 1 1;
#X restore 0 0 graph;
#X obj 276 351 hv.vline;
#X obj 272 154 / 127;
#X obj 297 212 * 0.5;
#X obj 272 262 pack;
#X msg 405 307 0 700;
#X msg 272 301 \$1 5 \, \$2 200 5;
#X obj 183 302 hv.osc saw;
#X obj 182 31 inlet;
#X obj 184 447 outlet~;
#X obj 272 94 inlet;
#X text 238 29 frequency;
#X text 257 446 output;
#X obj 405 148 inlet;
#X text 328 94 velocity high;
#X text 457 147 velocity 0;
#X obj 182 263 sig~;
#X obj 184 401 *~;
#X connect 1 0 17 1;
#X connect 2 0 4 0;
#X connect 2 0 3 0;
#X connect 3 0 4 1;
#X connect 4 0 6 0;
#X connect 5 0 1 0;
#X connect 6 0 1 0;
#X connect 7 0 17 0;
#X connect 8 0 16 0;
#X connect 10 0 2 0;
#X connect 13 0 5 0;
#X connect 16 0 7 0;
#X connect 17 0 9 0;
